<svg width="223.601" height="96.2" viewBox="0 0 223.601 96.2" xmlns="http://www.w3.org/2000/svg"><g id="svgGroup" stroke-linecap="round" fill-rule="evenodd" font-size="9pt" stroke="#6859ff" stroke-width="0.25mm" fill="#6859ff" style="stroke:#6859ff;stroke-width:0.25mm;fill:#6859ff"><path d="M 0 65.1 L 7.8 54.3 A 38.32 38.32 0 0 0 12.98 58.691 Q 18.89 62.8 24.8 62.8 A 15.34 15.34 0 0 0 27.722 62.538 Q 30.147 62.068 31.85 60.75 A 7.024 7.024 0 0 0 33.638 58.767 A 6.411 6.411 0 0 0 34.5 55.45 Q 34.5 52.2 31.3 49.95 Q 28.2 47.771 23.833 46.107 A 47.276 47.276 0 0 0 23.55 46 Q 19 44.3 14.5 42.15 Q 10 40 6.8 36 A 14.543 14.543 0 0 1 3.695 28.209 A 18.863 18.863 0 0 1 3.6 26.3 A 19.466 19.466 0 0 1 9.342 12.426 A 27.173 27.173 0 0 1 11.1 10.75 Q 18.6 4.2 28.9 4.2 Q 33.6 4.2 38 5.2 Q 42.4 6.2 46.5 8.1 L 39.7 22.7 Q 37.567 21.024 34.243 19.551 A 44.963 44.963 0 0 0 32.05 18.65 A 34.194 34.194 0 0 0 28.65 17.541 Q 26.95 17.09 25.428 16.913 A 16.325 16.325 0 0 0 23.55 16.8 A 12.413 12.413 0 0 0 21.058 17.036 Q 19.508 17.354 18.3 18.099 A 7.305 7.305 0 0 0 17.65 18.55 Q 15.4 20.3 15.4 23.2 Q 15.4 25.811 17.994 27.896 A 11.845 11.845 0 0 0 18.6 28.35 Q 21.7 30.53 26.067 32.193 A 47.276 47.276 0 0 0 26.35 32.3 Q 30.9 34 35.45 36.05 Q 40 38.1 43.2 42.1 A 14.543 14.543 0 0 1 46.305 49.891 A 18.863 18.863 0 0 1 46.4 51.8 A 21.429 21.429 0 0 1 40.451 66.68 A 29.145 29.145 0 0 1 38.9 68.25 Q 31.4 75.3 21.4 75.3 A 26.587 26.587 0 0 1 13.5 74.161 A 23.207 23.207 0 0 1 8.1 71.7 Q 3.68 69.014 1.513 66.853 A 13.212 13.212 0 0 1 0.9 66.2 L 0 65.1 Z M 131.3 44.7 L 138.1 44.7 L 138.1 43 Q 138.1 38.91 136.706 36.979 A 4.282 4.282 0 0 0 136.1 36.3 A 5.293 5.293 0 0 0 134.508 35.351 Q 132.908 34.711 130.371 34.552 A 28.462 28.462 0 0 0 128.6 34.5 A 13.902 13.902 0 0 0 126.632 34.651 Q 125.64 34.793 124.528 35.07 A 29.105 29.105 0 0 0 123.15 35.45 A 33.531 33.531 0 0 0 120.25 36.482 Q 118.783 37.077 117.182 37.859 A 61.38 61.38 0 0 0 116.1 38.4 L 113.2 30.5 Q 117.227 27.691 122.877 25.407 A 69.256 69.256 0 0 1 123.65 25.1 Q 129.657 22.756 133.613 22.702 A 13.585 13.585 0 0 1 133.8 22.7 Q 149.5 22.7 149.5 37.9 L 149.5 57.5 A 21.378 21.378 0 0 0 150.17 62.649 Q 150.755 65.008 151.852 67.556 A 42.933 42.933 0 0 0 153 70 L 142.4 74.5 A 71.385 71.385 0 0 1 140.583 70.765 Q 139.413 68.157 138.7 65.9 A 22.337 22.337 0 0 1 134.979 70.277 A 14.845 14.845 0 0 1 124.8 74.2 A 15.145 15.145 0 0 1 120.205 73.533 A 12.315 12.315 0 0 1 115.15 70.45 A 12.498 12.498 0 0 1 111.731 63.891 A 18.081 18.081 0 0 1 111.4 60.35 Q 111.4 54 117.2 49.35 Q 123 44.7 131.3 44.7 Z M 178.2 44.7 L 185 44.7 L 185 43 Q 185 38.91 183.606 36.979 A 4.282 4.282 0 0 0 183 36.3 A 5.293 5.293 0 0 0 181.408 35.351 Q 179.808 34.711 177.271 34.552 A 28.462 28.462 0 0 0 175.5 34.5 A 13.902 13.902 0 0 0 173.532 34.651 Q 172.54 34.793 171.428 35.07 A 29.105 29.105 0 0 0 170.05 35.45 A 33.531 33.531 0 0 0 167.15 36.482 Q 165.683 37.077 164.082 37.859 A 61.38 61.38 0 0 0 163 38.4 L 160.1 30.5 Q 164.127 27.691 169.777 25.407 A 69.256 69.256 0 0 1 170.55 25.1 Q 176.557 22.756 180.513 22.702 A 13.585 13.585 0 0 1 180.7 22.7 Q 196.4 22.7 196.4 37.9 L 196.4 57.5 A 21.378 21.378 0 0 0 197.07 62.649 Q 197.655 65.008 198.752 67.556 A 42.933 42.933 0 0 0 199.9 70 L 189.3 74.5 A 71.385 71.385 0 0 1 187.483 70.765 Q 186.313 68.157 185.6 65.9 A 22.337 22.337 0 0 1 181.879 70.277 A 14.845 14.845 0 0 1 171.7 74.2 A 15.145 15.145 0 0 1 167.105 73.533 A 12.315 12.315 0 0 1 162.05 70.45 A 12.498 12.498 0 0 1 158.631 63.891 A 18.081 18.081 0 0 1 158.3 60.35 Q 158.3 54 164.1 49.35 Q 169.9 44.7 178.2 44.7 Z M 194.9 95.3 L 198 83.9 Q 201.4 84.8 204.35 84.8 A 6.181 6.181 0 0 0 206.033 84.585 A 4.214 4.214 0 0 0 208.6 82.6 Q 209.601 80.907 209.831 77.141 A 40.111 40.111 0 0 0 209.9 74.7 L 209.8 49.9 L 208.7 25.8 L 222.1 23.3 L 220.9 48.2 L 222 70.8 A 32.32 32.32 0 0 1 220.643 80.335 A 27.254 27.254 0 0 1 216.4 88.7 Q 210.8 96.2 203.1 96.2 Q 199 96.2 194.9 95.3 Z M 78.1 25.9 L 90.2 23.3 Q 91.1 31 91.4 37.9 A 65.162 65.162 0 0 1 95.329 32.406 Q 99.665 27.015 103.737 25.001 A 10.695 10.695 0 0 1 108.5 23.8 L 107.4 39.4 Q 101.6 39.4 98.25 40.45 A 15.315 15.315 0 0 0 95.08 41.883 Q 93.716 42.685 92.328 43.812 A 28.61 28.61 0 0 0 91.4 44.6 L 91.4 48.2 L 92.5 71.7 L 79.1 74.2 L 80.3 49.9 A 208.098 208.098 0 0 0 79.584 37.576 Q 79.063 31.754 78.215 26.586 A 126.465 126.465 0 0 0 78.1 25.9 Z M 54.8 25.8 L 68.2 23.3 L 67 48.2 L 68.1 71.7 L 54.7 74.2 L 55.9 49.9 L 54.8 25.8 Z M 210.247 3.027 A 8.355 8.355 0 0 0 208 8.75 Q 208 12.2 209.95 14.3 A 6.299 6.299 0 0 0 212.945 16.108 A 8.611 8.611 0 0 0 215.25 16.4 A 7.368 7.368 0 0 0 218.884 15.473 A 8.948 8.948 0 0 0 221.1 13.7 Q 223.6 11 223.6 7.35 A 13.27 13.27 0 0 0 223.539 6.055 Q 223.274 3.356 221.85 1.85 Q 220.647 0.578 218.64 0.181 A 10.254 10.254 0 0 0 216.65 0 A 7.951 7.951 0 0 0 213.129 0.794 A 9.154 9.154 0 0 0 210.6 2.65 A 11.018 11.018 0 0 0 210.247 3.027 Z M 56.02 3.409 A 8.11 8.11 0 0 0 54.1 8.65 A 10.491 10.491 0 0 0 54.211 10.205 A 7.723 7.723 0 0 0 56 14.2 A 6.073 6.073 0 0 0 58.985 16.104 A 8.194 8.194 0 0 0 61.25 16.4 A 7.577 7.577 0 0 0 64.856 15.515 A 9.14 9.14 0 0 0 67.15 13.75 Q 69.7 11.1 69.7 7.4 A 13.239 13.239 0 0 0 69.638 6.093 Q 69.366 3.357 67.9 1.85 Q 66.687 0.604 64.748 0.197 A 9.985 9.985 0 0 0 62.7 0 Q 59.3 0 56.7 2.65 A 10.927 10.927 0 0 0 56.02 3.409 Z M 138.1 59.9 L 138.1 53.2 A 66.506 66.506 0 0 0 134.983 52.567 Q 131.982 52.038 129.805 52.003 A 18.915 18.915 0 0 0 129.5 52 A 10.32 10.32 0 0 0 127.123 52.249 Q 123.909 53.013 123.328 56.117 A 8.071 8.071 0 0 0 123.2 57.6 A 8.532 8.532 0 0 0 123.42 59.594 A 5.902 5.902 0 0 0 124.8 62.25 A 5.299 5.299 0 0 0 128.443 63.979 A 7.266 7.266 0 0 0 129 64 Q 133 64 138.1 59.9 Z M 185 59.9 L 185 53.2 A 66.506 66.506 0 0 0 181.883 52.567 Q 178.882 52.038 176.705 52.003 A 18.915 18.915 0 0 0 176.4 52 A 10.32 10.32 0 0 0 174.023 52.249 Q 170.809 53.013 170.228 56.117 A 8.071 8.071 0 0 0 170.1 57.6 A 8.532 8.532 0 0 0 170.32 59.594 A 5.902 5.902 0 0 0 171.7 62.25 A 5.299 5.299 0 0 0 175.343 63.979 A 7.266 7.266 0 0 0 175.9 64 Q 179.9 64 185 59.9 Z" vector-effect="non-scaling-stroke"/></g></svg>